HIERARCHY
ROOT Hips
{
	OFFSET	0.00	0.00	0.00
	CHANNELS 6 Xposition Yposition Zposition Zrotation Xrotation Yrotation
	JOINT LeftUpLeg
	{
		OFFSET	 0.126116	-0.014019	-0.065224
		CHANNELS 3 Zrotation Xrotation Yrotation
		JOINT LeftLeg
		{
			OFFSET	 0.000000	 0.000000	 0.569914
			CHANNELS 3 Zrotation Xrotation Yrotation
			JOINT LeftFoot
			{
				OFFSET	 0.000000	 0.000000	 0.544423
				CHANNELS 3 Zrotation Xrotation Yrotation
				JOINT LeftToeBase
				{
					OFFSET	 0.000000	 0.000000	 0.207117
					CHANNELS 3 Zrotation Xrotation Yrotation
					End Site
					{
						OFFSET	 0.000000	 0.000000	 0.207117
					}
				}
			}
		}
	}
	JOINT RightUpLeg
	{
		OFFSET	-0.124023	-0.008373	-0.065224
		CHANNELS 3 Zrotation Xrotation Yrotation
		JOINT RightLeg
		{
			OFFSET	 0.000000	 0.000000	 0.570047
			CHANNELS 3 Zrotation Xrotation Yrotation
			JOINT RightFoot
			{
				OFFSET	 0.000000	 0.000000	 0.544354
				CHANNELS 3 Zrotation Xrotation Yrotation
				JOINT RightToeBase
				{
					OFFSET	 0.000000	 0.000000	 0.207540
					CHANNELS 3 Zrotation Xrotation Yrotation
					End Site
					{
						OFFSET	 0.000000	 0.000000	 0.207540
					}
				}
			}
		}
	}
	JOINT Spine
	{
		OFFSET	 0.000184	-0.007763	 0.117403
		CHANNELS 3 Zrotation Xrotation Yrotation
		JOINT Spine1
		{
			OFFSET	 0.000000	 0.000000	 0.137269
			CHANNELS 3 Zrotation Xrotation Yrotation
			JOINT Spine2
			{
				OFFSET	 0.000000	 0.000000	 0.156879
				CHANNELS 3 Zrotation Xrotation Yrotation
				JOINT LeftShoulder
				{
					OFFSET	 0.080501	-0.002496	 0.160144
					CHANNELS 3 Zrotation Xrotation Yrotation
					JOINT LeftArm
					{
						OFFSET	 0.000000	 0.000000	 0.164363
						CHANNELS 3 Zrotation Xrotation Yrotation
						JOINT LeftForeArm
						{
							OFFSET	 0.000000	 0.000000	 0.364576
							CHANNELS 3 Zrotation Xrotation Yrotation
							JOINT LeftHand
							{
								OFFSET	 0.000000	 0.000000	 0.360812
								CHANNELS 3 Zrotation Xrotation Yrotation
								JOINT LeftHandIndex1
								{
									OFFSET	 0.000000	 0.000000	 0.086006
									CHANNELS 3 Zrotation Xrotation Yrotation
									JOINT LeftHandIndex2
									{
										OFFSET	 0.000000	 0.000000	 0.047236
										CHANNELS 3 Zrotation Xrotation Yrotation
										JOINT LeftHandIndex3
										{
											OFFSET	-0.004284	-0.000551	 0.038166
											CHANNELS 3 Zrotation Xrotation Yrotation
											End Site
											{
												OFFSET	-0.004284	-0.000551	 0.038166
											}
										}
									}
								}
							}
						}
					}
				}
				JOINT Neck
				{
					OFFSET	 0.000000	 0.000000	 0.176489
					CHANNELS 3 Zrotation Xrotation Yrotation
					JOINT Head
					{
						OFFSET	 0.000000	-0.001747	 0.077940
						CHANNELS 3 Zrotation Xrotation Yrotation
						End Site
						{
							OFFSET	 0.000000	-0.001747	 0.077940
						}
					}
				}
				JOINT RightShoulder
				{
					OFFSET	-0.080363	 0.000306	 0.159706
					CHANNELS 3 Zrotation Xrotation Yrotation
					JOINT RightArm
					{
						OFFSET	 0.000000	 0.000000	 0.164196
						CHANNELS 3 Zrotation Xrotation Yrotation
						JOINT RightForeArm
						{
							OFFSET	 0.000000	 0.000000	 0.365611
							CHANNELS 3 Zrotation Xrotation Yrotation
							JOINT RightHand
							{
								OFFSET	 0.000000	 0.000000	 0.360648
								CHANNELS 3 Zrotation Xrotation Yrotation
								JOINT RightHandIndex1
								{
									OFFSET	 0.000000	 0.000000	 0.069977
									CHANNELS 3 Zrotation Xrotation Yrotation
									JOINT RightHandIndex2
									{
										OFFSET	 0.000000	 0.000000	 0.052305
										CHANNELS 3 Zrotation Xrotation Yrotation
										JOINT RightHandIndex3
										{
											OFFSET	 0.009002	-0.000782	 0.042196
											CHANNELS 3 Zrotation Xrotation Yrotation
											End Site
											{
												OFFSET	 0.009002	-0.000782	 0.042196
											}
										}
									}
								}
							}
						}
					}
				}
			}
		}
	}
}
MOTION
Frames:    7
Frame Time: 0.03333334
-0.306535	 0.421207	 0.759267	 85.119220	 4.012463	-0.883530	 9.723763	 17.479580	-176.284000	-5.977258	-11.624380	 1.536810	-16.189540	 89.173860	 19.648550	-2.290861	 40.621500	-0.292416	 4.295509	-45.897110	 179.785800	-0.671047	-43.019940	 3.312371	-177.002700	 83.790500	-178.678000	 2.400254	 23.789790	-0.096727	 5.246140	 3.042403	 2.604320	 10.080150	-4.466871	 1.920820	 12.735330	-8.457883	 1.067697	-91.776180	 78.527400	-180.000000	 41.766180	 62.107200	-56.976130	-6.801007	-4.490166	-27.619100	 2.742730	-22.639140	-5.836679	-3.812334	 37.924440	-2.927599	-2.450526	 36.184240	 0.754587	-1.378229	 35.397820	-2.634230	-0.184850	 4.875475	-2.371753	 3.661516	-23.556840	-0.536385	 89.782090	 78.203830	-180.000000	-30.842580	 73.007430	 34.686450	 4.123830	-6.471956	 20.188680	-10.566190	-23.597000	 10.432020	 6.437017	 35.671460	-0.771858	 2.830251	 35.756010	-7.813440	-2.350882	 35.473990	 5.254307
-0.281281	 0.419581	 0.757034	 85.754520	 4.128400	-1.113999	 9.346720	 18.487710	-176.319900	-5.643634	-11.624700	 1.534529	-8.338178	 88.920980	 11.782900	-2.271284	 42.188560	-0.335935	 4.590599	-45.648080	-179.592100	-0.110825	-42.209960	 3.728931	-176.163700	 84.758320	-178.979900	 2.386073	 28.063770	-0.007023	 4.664503	 2.798455	 2.598581	 9.909348	-4.674035	 1.838818	 12.599300	-8.607099	 1.018092	-91.776180	 78.527400	 180.000000	 42.748840	 62.348130	-58.054530	-6.795719	-4.359791	-26.678190	 2.895897	-23.184520	-5.895630	-3.812334	 37.924440	-2.927599	-2.450526	 36.184240	 0.754587	-1.378229	 35.397820	-2.634230	-0.299326	 5.071176	-2.301959	 3.579373	-23.909770	-0.550803	 89.782100	 78.203850	-180.000000	-30.245020	 73.248250	 33.649300	 4.314411	-6.291401	 19.915780	-10.525680	-24.124160	 10.511170	 6.437017	 35.671460	-0.771858	 2.830251	 35.756010	-7.813440	-2.350882	 35.473990	 5.254307
-0.238713	 0.415742	 0.756125	 86.499080	 4.320803	-1.339424	 8.878650	 20.157420	-176.651700	-5.029376	-11.622770	 1.549471	 0.244157	 88.050470	 3.289853	-2.232966	 44.850730	-0.414276	 5.076794	-45.078280	-178.866100	 0.490787	-42.299730	 4.362108	-175.554700	 86.320340	-179.005200	 2.376043	 30.165220	 0.038910	 3.599286	 2.401345	 2.453523	 9.675807	-5.037342	 1.712744	 12.471410	-8.804108	 0.947166	-91.776180	 78.527400	-180.000000	 44.096050	 63.157650	-59.210380	-7.165247	-4.092545	-25.128430	 3.102802	-24.247100	-6.017601	-3.812334	 37.924440	-2.927599	-2.450526	 36.184240	 0.754587	-1.378229	 35.397820	-2.634230	-0.466428	 5.188550	-2.268739	 3.450104	-24.065380	-0.475704	 89.782090	 78.203830	-180.000000	-29.040700	 73.761650	 31.906960	 4.922641	-6.003537	 19.672240	-10.399800	-25.151750	 10.673510	 6.437017	 35.671460	-0.771858	 2.830251	 35.756010	-7.813440	-2.350882	 35.473990	 5.254307
-0.192343	 0.410770	 0.754260	 87.126720	 4.512612	-1.482890	 8.537763	 21.895660	-177.249800	-4.302160	-11.617900	 1.585890	 3.916334	 86.157170	-0.131814	-2.172670	 48.280880	-0.525011	 5.305993	-44.111130	-178.451500	 1.932971	-43.523680	 5.625784	-174.321300	 88.421940	-179.279800	 2.381185	 29.144260	 0.016425	 2.344998	 1.927597	 2.159659	 9.447538	-5.450457	 1.589318	 12.400060	-9.013191	 0.876883	-91.776180	 78.527400	 180.000000	 45.060470	 64.455990	-59.531780	-7.963033	-3.778791	-23.625410	 3.266940	-25.503860	-6.173296	-3.812334	 37.924440	-2.927599	-2.450526	 36.184240	 0.754587	-1.378229	 35.397820	-2.634230	-0.629802	 4.989145	-2.181839	 3.326102	-23.828960	-0.319648	 89.782120	 78.203870	 180.000000	-27.666530	 74.298950	 29.999090	 5.711369	-5.698965	 19.620610	-10.163560	-26.359320	 10.882890	 6.437017	 35.671460	-0.771858	 2.830251	 35.756010	-7.813440	-2.350882	 35.473990	 5.254307
-0.139379	 0.404495	 0.755540	 87.537780	 4.442890	-1.393840	 8.481688	 23.756330	-178.254300	-3.475859	-11.607680	 1.659823	 5.032975	 82.451970	-0.694495	-2.092854	 51.887630	-0.656648	 4.493649	-42.875480	-178.999200	 5.443875	-45.347780	 8.012632	 7.318607	 88.236860	 0.780286	 2.370987	 31.081900	 0.059382	 0.938389	 1.386681	 1.475125	 9.328192	-5.904084	 1.449757	 12.377490	-9.308147	 0.908277	-91.776180	 78.527400	-180.000000	 45.308090	 66.349420	-58.532050	-9.299954	-3.412883	-22.262240	 3.357039	-27.016580	-6.380835	-3.812334	 37.924440	-2.927599	-2.450526	 36.184240	 0.754587	-1.378229	 35.397820	-2.634230	-0.813976	 4.814043	-2.042034	 3.180780	-23.503840	-0.076729	 89.782090	 78.203830	-180.000000	-25.860390	 74.819850	 27.517050	 6.716364	-5.337961	 19.764120	-9.732748	-27.806260	 11.164970	 6.437017	 35.671460	-0.771858	 2.830251	 35.756010	-7.813440	-2.350882	 35.473990	 5.254307
-0.070858	 0.395373	 0.760412	 87.703120	 4.325655	-1.329633	 8.787406	 25.974070	-179.350400	-3.153991	-11.601890	 1.700124	 4.492042	 74.655530	 0.583347	-2.062307	 53.068210	-0.703906	 3.610709	-41.285240	-179.868100	 6.383352	-47.449360	 8.620626	 4.863426	 86.073050	 3.111337	 2.374075	 30.531730	 0.047058	-0.560123	 0.394249	 0.947017	 9.448170	-6.315219	 1.259244	 12.109080	-9.491398	 1.136200	-91.776180	 78.527400	 180.000000	 44.113650	 69.093800	-55.305630	-11.835610	-2.849472	-21.262510	 2.972413	-29.059440	-6.706163	-3.812334	 37.924440	-2.927599	-2.450526	 36.184240	 0.754587	-1.378229	 35.397820	-2.634230	-0.968109	 4.730850	-1.887333	 3.074571	-23.182610	 0.249545	 89.782120	 78.203870	 180.000000	-24.390360	 75.292900	 25.489140	 7.966397	-4.870771	 20.201910	-9.041298	-29.767120	 11.597620	 6.437017	 35.671460	-0.771858	 2.830251	 35.756010	-7.813440	-2.350882	 35.473990	 5.254307
-0.030381	 0.389567	 0.764607	 87.785640	 4.271553	-1.393533	 9.038519	 27.072340	-179.886100	-3.501006	-11.610570	 1.638647	 4.109841	 68.616330	 1.094123	-2.074853	 52.594670	-0.684672	 3.444698	-39.880640	 179.787300	 6.006761	-48.350660	 8.421490	 4.994482	 85.607700	 2.512478	 2.380673	 29.248850	 0.018714	-1.417844	-0.253095	 0.912228	 9.524139	-6.514503	 1.209000	 11.933200	-9.491510	 1.247175	-91.776180	 78.527400	 180.000000	 42.645050	 70.513880	-52.292300	-13.431270	-2.464448	-21.172190	 2.403723	-30.283720	-6.930958	-3.812334	 37.924440	-2.927599	-2.450526	 36.184240	 0.754587	-1.378229	 35.397820	-2.634230	-0.969901	 4.687490	-1.868329	 3.031214	-22.794980	 0.343355	 89.782090	 78.203830	-180.000000	-24.145160	 75.443730	 25.086720	 8.602329	-4.599558	 20.573360	-8.593204	-30.950340	 11.885950	 6.437017	 35.671460	-0.771858	 2.830251	 35.756010	-7.813440	-2.350882	 35.473990	 5.254307
